<svg 
id="visual" 
viewBox="0 0 900 600" 
preserveAspectRatio="none"
xmlns="http://www.w3.org/2000/svg" 
xmlns:xlink="http://www.w3.org/1999/xlink" 
version="1.1">
<path d="
    M0 121L82 121L82 175L164
    175L164 133L245 133L245 
    67L327 67L327 109L409 
    109L409 109L491 109L491 
    133L573 133L573 145L655 
    145L655 121L736 121L736 
    121L818 121L818 91L900 
    91L900 157L900 0L900 
    0L818 0L818 0L736 0L736 
    0L655 0L655 0L573 0L573 
    0L491 0L491 0L409 0L409 
    0L327 0L327 0L245 0L245 
    0L164 0L164 0L82 0L82 0L0 
    0Z" fill="#fa8072">
    </path>
    <path d="
    M0 301L82 301L82 385L164 
    385L164 319L245 319L245 
    223L327 223L327 325L409 
    325L409 247L491 247L491 
    265L573 265L573 229L655 
    229L655 295L736 295L736 
    241L818 241L818 247L900 
    247L900 361L900 155L900 
    89L818 89L818 119L736 
    119L736 119L655 119L655 
    143L573 143L573 131L491 
    131L491 107L409 107L409 
    107L327 107L327 65L245 
    65L245 131L164 131L164 
    173L82 173L82 119L0 119Z" 
    fill="#fea193"></path>
    <path d="
    M0 373L82 373L82 445L164 
    445L164 373L245 373L245 
    313L327 313L327 421L409 
    421L409 289L491 289L491 
    367L573 367L573 331L655 
    331L655 373L736 373L736 
    355L818 355L818 349L900 
    349L900 421L900 359L900 
    245L818 245L818 239L736 
    239L736 293L655 293L655 
    227L573 227L573 263L491 
    263L491 245L409 245L409 
    323L327 323L327 221L245 
    221L245 317L164 317L164 
    383L82 383L82 299L0 299Z"
     fill="#ffc0b6"></path>
     <path d="
     M0 505L82 505L82 553L164 
     553L164 505L245 505L245 
     523L327 523L327 547L409 
     547L409 517L491 517L491 
     559L573 559L573 559L655 
     559L655 517L736 517L736 
     559L818 559L818 505L900 
     505L900 559L900 419L900 
     347L818 347L818 353L736 
     353L736 371L655 371L655 
     329L573 329L573 365L491 
     365L491 287L409 287L409 
     419L327 419L327 311L245 
     311L245 371L164 371L164 
     443L82 443L82 371L0 371Z" 
     fill="#ffdfda"></path>
     <path d="
     M0 601L82 601L82 601L164 
     601L164 601L245 601L245 
     601L327 601L327 601L409 
     601L409 601L491 601L491 
     601L573 601L573 601L655 
     601L655 601L736 601L736 
     601L818 601L818 601L900 
     601L900 601L900 557L900 
     503L818 503L818 557L736 
     557L736 515L655 515L655 
     557L573 557L573 557L491 
     557L491 515L409 515L409 
     545L327 545L327 521L245 
     521L245 503L164 503L164 
     551L82 551L82 503L0 503Z"
    fill="#ffffff"></path>
</svg>