<svg width="120" height="112" viewBox="0 0 120 112" fill="none" xmlns="http://www.w3.org/2000/svg">
<path d="M81.9974 56C81.9974 71.3665 79.4374 85.2317 75.3359 95.2181C73.2841 100.214 70.8663 104.19 68.2327 106.903C65.602 109.612 62.8194 111 59.9974 111C57.1755 111 54.3929 109.612 51.7622 106.903C49.1286 104.19 46.7108 100.214 44.659 95.2181C40.5574 85.2317 37.9974 71.3665 37.9974 56C37.9974 40.6335 40.5574 26.7683 44.659 16.7819C46.7108 11.7863 49.1286 7.80959 51.7622 5.0974C54.3929 2.38828 57.1755 1 59.9974 1C62.8194 1 65.602 2.38828 68.2327 5.0974C70.8663 7.80959 73.2841 11.7863 75.3359 16.7819C79.4374 26.7683 81.9974 40.6335 81.9974 56Z" stroke="#31A1D1" stroke-width="2"/>
<path d="M70.9974 75.0526C57.6896 82.7358 44.4021 87.4514 33.7028 88.8925C28.3506 89.6134 23.6977 89.5079 20.0321 88.5832C16.3706 87.6596 13.777 85.9439 12.366 83.5C10.955 81.0561 10.766 77.9522 11.7969 74.3194C12.8289 70.6825 15.064 66.6002 18.3644 62.3256C24.9621 53.7803 35.6896 44.6307 48.9974 36.9474C62.3052 29.2642 75.5928 24.5486 86.2921 23.1075C91.6442 22.3866 96.2971 22.4921 99.9628 23.4168C103.624 24.3404 106.218 26.0561 107.629 28.5C109.04 30.9439 109.229 34.0478 108.198 37.6806C107.166 41.3175 104.931 45.3998 101.63 49.6744C95.0328 58.2197 84.3052 67.3693 70.9974 75.0526Z" stroke="#31A1D1" stroke-width="2"/>
<path d="M70.9974 36.9474C84.3052 44.6307 95.0328 53.7803 101.63 62.3256C104.931 66.6002 107.166 70.6825 108.198 74.3194C109.229 77.9522 109.04 81.0561 107.629 83.5C106.218 85.9439 103.624 87.6596 99.9628 88.5832C96.2971 89.5079 91.6442 89.6134 86.292 88.8925C75.5928 87.4514 62.3052 82.7358 48.9974 75.0526C35.6896 67.3693 24.9621 58.2197 18.3644 49.6744C15.0639 45.3998 12.8289 41.3175 11.7969 37.6806C10.766 34.0478 10.955 30.9439 12.366 28.5C13.777 26.0561 16.3706 24.3404 20.0321 23.4168C23.6977 22.4921 28.3506 22.3866 33.7028 23.1075C44.4021 24.5486 57.6896 29.2642 70.9974 36.9474Z" stroke="#31A1D1" stroke-width="2"/>
<rect x="53" y="48" width="15" height="15" fill="#31A1D1"/>
</svg>
